# xmcd
#
# Track frame offsets:
#	150
#	14493
#	28189
#	44048
#	64159
#	78449
#	97451
#	111061
#	128921
#	146634
#	164074
#
# Disc length: 2455 seconds
#
# Revision: 2
# Processed by: cddbd v1.5.1PL2 Copyright (c) Steve Scherf et al.
# Submitted via: audiograbber 1.83.01
#
DISCID=a709950b
DTITLE=Mindy Mccready - If I Don't Stay The Night
DYEAR=1997
DGENRE=Country
TTITLE0=What If I Don't
TTITLE1=This Is Me
TTITLE2=If I Don't Stay The Night
TTITLE3=Cross Against The Moon
TTITLE4=For A Good Time Call
TTITLE5=Oh Romeo
TTITLE6=The Other Side Of The Kiss
TTITLE7=You'll Never Know
TTITLE8=Fine Art Of Holdong A Woman
TTITLE9=Only A Whisper
TTITLE10=Long, Long Time
EXTD=
EXTT0=
EXTT1=
EXTT2=
EXTT3=
EXTT4=
EXTT5=
EXTT6=
EXTT7=
EXTT8=
EXTT9=
EXTT10=
PLAYORDER=
